<svg xmlns="http://www.w3.org/2000/svg" width="35.8mm" height="5.8mm" viewBox="0 0 101.4 16.4">
  <title>logo-andes-h</title>
  <g style="isolation: isolate">
    <g id="img">
      <g>
        <g>
          <path d="M40.9,15.4l-.3-.8h-1l-.3.8h-.3l1-2.5h.2l1,2.5Zm-.4-1.1-.3-.8v0l-.3.8Z" fill="#1d1d1b"/>
          <path d="M43.8,13.6a.7.7,0,0,1-.3.6l-.7.2h-.3v1h-.3V12.9h.7Q43.8,12.9,43.8,13.6Zm-1.3.5h.8a.5.5,0,0,0,.2-.4.4.4,0,0,0-.2-.4h-.8Z" fill="#1d1d1b"/>
          <path d="M46.6,13.6a.7.7,0,0,1-.3.6l-.7.2h-.3v1H45V12.9h.7Q46.6,12.9,46.6,13.6Zm-1.3.5h.8a.5.5,0,0,0,.2-.4.4.4,0,0,0-.2-.4h-.8Z" fill="#1d1d1b"/>
          <path d="M49.3,14.7a.6.6,0,0,1-.2.5l-.7.2h-.7V15h1.1a.4.4,0,0,0,.1-.3v-.2l-.2-.2-.4-.2-.5-.3a.7.7,0,0,1-.2-.4A.6.6,0,0,1,48,13l.6-.2h.7v.3h-1a.3.3,0,0,0-.1.3v.2l.2.2.4.2.5.3A.6.6,0,0,1,49.3,14.7Z" fill="#1d1d1b"/>
          <path d="M54.1,15.4h-.3l-1.4-2.1h0q0,.4,0,.7v1.4h-.3V12.9h.3L53.8,15h0v-.3q0-.3,0-.4V12.9h.3Z" fill="#1d1d1b"/>
          <path d="M56.9,15.4H55.5V12.9h1.4v.3H55.8v.8h1v.3h-1v.9h1.1Z" fill="#1d1d1b"/>
          <path d="M60.1,12.9v1.6a.9.9,0,0,1-.3.7,1,1,0,0,1-.7.2,1,1,0,0,1-.7-.2.9.9,0,0,1-.2-.7V12.9h.3v1.6a.6.6,0,0,0,.2.5l.5.2.5-.2a.7.7,0,0,0,.2-.5V12.9Z" fill="#1d1d1b"/>
          <path d="M63.6,14.1a1.5,1.5,0,0,1-.2.8,1,1,0,0,1-.5.4l.6.6h-.4l-.5-.6h-.1a1.1,1.1,0,0,1-.9-.3,1.4,1.4,0,0,1-.3-1,1.4,1.4,0,0,1,.3-1,1.1,1.1,0,0,1,.9-.3,1.1,1.1,0,0,1,.8.3A1.4,1.4,0,0,1,63.6,14.1Zm-2,0a1.2,1.2,0,0,0,.2.8.9.9,0,0,0,1.3,0,1.2,1.2,0,0,0,.2-.8,1.2,1.2,0,0,0-.2-.8.8.8,0,0,0-.6-.3.8.8,0,0,0-.6.3A1.2,1.2,0,0,0,61.6,14.1Z" fill="#1d1d1b"/>
          <path d="M66.8,12.9v1.6a.9.9,0,0,1-.3.7,1,1,0,0,1-.7.2,1,1,0,0,1-.7-.2.9.9,0,0,1-.2-.7V12.9h.3v1.6a.6.6,0,0,0,.2.5l.5.2.5-.2a.7.7,0,0,0,.2-.5V12.9Z" fill="#1d1d1b"/>
          <path d="M68.2,15.4V12.9h.3v2.5Z" fill="#1d1d1b"/>
          <path d="M71.8,15.4h-.3l-1.4-2.1h0q0,.4,0,.7v1.4h-.3V12.9h.3L71.6,15h0v-.3q0-.3,0-.4V12.9h.3Z" fill="#1d1d1b"/>
          <path d="M74.8,15.4l-.3-.8h-1l-.3.8h-.3l1-2.5h.2l1,2.5Zm-.4-1.1-.3-.8v0l-.3.8Z" fill="#1d1d1b"/>
          <path d="M77.6,14.7a.6.6,0,0,1-.2.5l-.7.2H76V15h1.1a.4.4,0,0,0,.1-.3v-.2l-.2-.2-.4-.2-.5-.3a.7.7,0,0,1-.2-.4.6.6,0,0,1,.2-.5l.6-.2h.7v.3h-1a.3.3,0,0,0-.1.3v.2l.2.2.4.2.5.3A.6.6,0,0,1,77.6,14.7Z" fill="#1d1d1b"/>
          <path d="M82.5,14.1a1.3,1.3,0,0,1-.3,1,1.3,1.3,0,0,1-1,.3h-.7V12.9h.8a1.1,1.1,0,0,1,1.2,1.2Zm-.3,0a1,1,0,0,0-.2-.7,1,1,0,0,0-.7-.2h-.4v2h.4a1.1,1.1,0,0,0,.8-.3A1,1,0,0,0,82.1,14.1Z" fill="#1d1d1b"/>
          <path d="M85.1,15.4H83.7V12.9h1.4v.3H84v.8h1v.3H84v.9h1.1Z" fill="#1d1d1b"/>
          <path d="M89.4,14.7a.6.6,0,0,1-.2.5l-.7.2h-.7V15H89a.4.4,0,0,0,.1-.3v-.2l-.2-.2-.4-.2-.5-.3a.7.7,0,0,1-.2-.4.6.6,0,0,1,.2-.5l.6-.2h.7v.3h-1a.3.3,0,0,0-.1.3v.2l.2.2.4.2.5.3A.6.6,0,0,1,89.4,14.7Z" fill="#1d1d1b"/>
          <path d="M92.2,15.4l-.3-.8h-1l-.3.8h-.3l1-2.5h.2l1,2.5Zm-.4-1.1-.3-.8v0l-.3.8Z" fill="#1d1d1b"/>
          <path d="M93.6,15.4V12.9h.3v2.3H95v.3Z" fill="#1d1d1b"/>
          <path d="M98,12.9v1.6a.9.9,0,0,1-.3.7,1,1,0,0,1-.7.2,1,1,0,0,1-.7-.2.9.9,0,0,1-.2-.7V12.9h.3v1.6a.6.6,0,0,0,.2.5l.5.2.5-.2a.7.7,0,0,0,.2-.5V12.9Z" fill="#1d1d1b"/>
          <path d="M101.4,14.1a1.3,1.3,0,0,1-.3,1,1.3,1.3,0,0,1-1,.3h-.7V12.9h.8a1.1,1.1,0,0,1,1.2,1.2Zm-.3,0a1,1,0,0,0-.2-.7,1,1,0,0,0-.7-.2h-.4v2h.4a1.1,1.1,0,0,0,.8-.3A1,1,0,0,0,101.1,14.1Z" fill="#1d1d1b"/>
        </g>
        <g>
          <path d="M45.2,8.4h-.3l-.2-.2L43.8,6,42.3,2.4,39.8,8.1a.4.4,0,0,1-.4.3h-.3V8a.4.4,0,0,1,0-.2L41.9,1,42,.8h.2a.4.4,0,0,1,.4.3l2.9,6.8v.2a.4.4,0,0,1-.2.3Z" fill="#1d1d1b"/>
          <path d="M67.7,8.5c-.6,0-.6-.3-.6-.5s.2-.5.6-.5h2.8a2.3,2.3,0,0,0,1.9-.8,3.4,3.4,0,0,0,.6-2.2A4,4,0,0,0,72.8,3a2.1,2.1,0,0,0-.8-1,2.4,2.4,0,0,0-1.4-.3h-3a.4.4,0,0,1-.3-.4c0-.1,0-.5.7-.5h2.8a3.2,3.2,0,0,1,1.9.5,3.1,3.1,0,0,1,1.1,1.4A4.7,4.7,0,0,1,74,4.6a4.8,4.8,0,0,1-.4,1.9,3.2,3.2,0,0,1-1.1,1.4,3.3,3.3,0,0,1-1.9.6H67.7Z" fill="#1d1d1b"/>
          <path d="M98.6,8.5a3.7,3.7,0,0,1-1.5-.3,4.4,4.4,0,0,1-1.2-.9.4.4,0,0,1-.1-.3.4.4,0,0,1,.1-.3h.3l.4.2a2.6,2.6,0,0,0,.9.7l1.1.2a2.1,2.1,0,0,0,1.2-.3.9.9,0,0,0,.4-.8,1,1,0,0,0-.2-.7l-.6-.4-1-.4-1.2-.5a2.3,2.3,0,0,1-.8-.6,1.8,1.8,0,0,1-.3-1.1,1.8,1.8,0,0,1,.3-1,2.2,2.2,0,0,1,.9-.7L98.7.6l1.3.2a2.4,2.4,0,0,1,1,.7.6.6,0,0,1,.2.4.4.4,0,0,1-.2.3h-.6l-.7-.5-.9-.2a2.2,2.2,0,0,0-1.2.3.9.9,0,0,0-.4.8.9.9,0,0,0,.2.6l.6.4,1,.4,1.2.5a2.3,2.3,0,0,1,.8.7,2,2,0,0,1,.4,1.2,1.7,1.7,0,0,1-.3,1,2.2,2.2,0,0,1-.9.7Z" fill="#1d1d1b"/>
          <path d="M58.9,8.4l-.4-.2L54.1,2.4V8a.4.4,0,0,1-.1.3h-.6a.4.4,0,0,1-.1-.3V1.2a.4.4,0,0,1,.1-.3H54l4.5,5.9V1.2a.4.4,0,0,1,.1-.3h.6a.4.4,0,0,1,.1.3V8a.4.4,0,0,1-.1.3Z" fill="#1d1d1b"/>
          <path d="M82.1,1.7a.5.5,0,1,1,0-.9H88a.5.5,0,1,1,0,.9Z" fill="#1d1d1b"/>
          <path d="M82.1,8.5a.5.5,0,0,1,0-.9H88a.5.5,0,1,1,0,.9Z" fill="#1d1d1b"/>
          <rect x="84.4" y="1.8" width="0.9" height="5.79" rx="0.4" ry="0.4" transform="translate(89.5 -80.2) rotate(90)" fill="#1d1d1b"/>
        </g>
        <path d="M33.3,13A3.7,3.7,0,0,1,30.2,11c-.8-1.3-1.7-2.6-5.4-1.5h0c-1.2.2-1.9,1.7-2.6,3.2l-.4.9-.7-1.4c-.6-1.3-1.1-3-1.6-4.6s-1-3-1.4-4.1S16.7.4,16,.3a4.9,4.9,0,0,0-3.6.2c-.9.5-1.7,2.3-2.7,4.9s-1.2,3-1.9,4.5c-.7-1-1.3-1.9-2.1-1.9s-1.2.7-2.1,1.6A10.4,10.4,0,0,1,0,12.3l.2.6A10.9,10.9,0,0,0,4.1,10c.6-.7,1.3-1.4,1.6-1.4s1.1,1,1.7,1.8l.7,1,.4.5a1.5,1.5,0,0,0,1,.5h.2c1.5,0,2.6-3.1,3.8-6.4l.9-2.5c.5,1.2,1,2.8,1.5,4.4,1.6,5,2.7,8,4,8.2h0l1.7.2c2.9,0,3.6-1.9,4.3-3.5a8.6,8.6,0,0,1,.8-1.7l.6.7c.9,1,1.8,2.2,3.3,2.3h.4a7.8,7.8,0,0,0,2.4-.4l1.5-.5ZM12.8,5.8c-.9,2.5-2.1,5.9-3.1,5.9a1,1,0,0,1-.7-.4l-.4-.5-.3-.5c.8-1.6,1.5-3.3,2.1-4.9s1.7-4.2,2.4-4.6h0A3.5,3.5,0,0,1,15,.7h0a4.6,4.6,0,0,0-.7,1.2A39.8,39.8,0,0,0,12.8,5.8Zm3.7,1.9c-.6-1.9-1.2-3.7-1.8-5.1l.2-.5.4-.7.6-.6a6.3,6.3,0,0,1,1.5,2.6c.4,1.1.9,2.5,1.3,3.9s1.1,3.4,1.7,4.8h0v.3h.1v.4h.1v.2h.1V14h0v.2h0a2.9,2.9,0,0,1-.9,1.1h-.5C18.9,15.4,17.5,11,16.5,7.8Zm8.7,4.8c-.7,1.7-1.3,3.3-4,3.1h.1a5.1,5.1,0,0,0,.8-1.1v-.2h0l.6-1.3c.6-1.4,1.2-2.8,2.2-2.8a1.7,1.7,0,0,1,1.2.5A8.8,8.8,0,0,0,25.2,12.6Zm5.4.8c-1.2-.1-2.1-1.1-2.9-2.1l-.7-.8h0l-.2-.2-.7-.6h-.1c2.1-.3,2.7.5,3.4,1.5a4.6,4.6,0,0,0,2.2,2Z" fill="#1d1d1b" style="mix-blend-mode: multiply"/>
      </g>
    </g>
  </g>
</svg>
