<svg xmlns="http://www.w3.org/2000/svg" width="20.5mm" height="7.3mm" viewBox="0 0 58.2 20.6">
  <title>logo-opcional</title>
  <g id="img">
    <g>
      <polygon points="6.6 12.6 2.6 7.3 2.6 12.6 0 12.6 0 3.1 2.4 3.1 6.4 8.4 6.4 3.1 9 3.1 9 12.6 6.6 12.6" fill="#969696"/>
      <polygon points="9.4 5.3 9.4 6.8 13.9 6.8 13.9 8.9 9.4 8.9 9.4 10.4 14.4 10.4 14.4 12.6 6.6 12.6 6.6 3.1 15.8 3.1 15.8 5.3 9.4 5.3" fill="#969696"/>
      <path d="M23.9,8.6c0,2.5-1.7,4.1-4.4,4.1S15,11.1,15,8.6V3.1h2.8V8.6a1.7,1.7,0,0,0,1.7,1.8,1.6,1.6,0,0,0,1.6-1.8V3.1h2.8Z" fill="#969696"/>
      <path d="M34.8,13.8A4.6,4.6,0,0,1,32,14.9a3.3,3.3,0,0,1-3.1-2.2A4.8,4.8,0,1,1,29.2,3a4.8,4.8,0,0,1,5.1,4.8,4.7,4.7,0,0,1-3,4.5,1.2,1.2,0,0,0,.9.5,3,3,0,0,0,1.6-.7Zm-5.5-3.5a2.3,2.3,0,0,0,2.2-2.5,2.3,2.3,0,0,0-2.2-2.5A2.4,2.4,0,0,0,27,7.8a2.4,2.4,0,0,0,2.3,2.5" fill="#969696"/>
      <path d="M43.5,8.6c0,2.5-1.7,4.1-4.4,4.1s-4.5-1.6-4.5-4.1V3.1h2.8V8.6a1.7,1.7,0,0,0,1.7,1.8,1.6,1.6,0,0,0,1.6-1.8V3.1h2.8Z" fill="#969696"/>
      <path d="M43.5,5.3V6.8H48V8.9H43.5v1.5h5.1v2.2H40l.7-.6V3.1h9.2V5.3Zm1.8-2.8h-2L44.7,0l2.4.8Z" fill="#969696"/>
      <polygon points="55.8 12.6 51.8 7.3 51.8 12.6 49.2 12.6 49.2 3.1 51.6 3.1 55.6 8.4 55.6 3.1 58.2 3.1 58.2 12.6 55.8 12.6" fill="#969696"/>
      <path d="M1.7,16.6a1.2,1.2,0,0,1,.9.3,1.1,1.1,0,0,1,.3.8,1.1,1.1,0,0,1-.3.8,1.2,1.2,0,0,1-.9.3H.5v1.6H0V16.6Zm-.2,1.8.6-.2a.8.8,0,0,0,0-1.1l-.6-.2H.5v1.4Z" fill="#969696"/>
      <path d="M9,16.6a1.3,1.3,0,0,1,.9.3.9.9,0,0,1,.3.7,1.2,1.2,0,0,1-.2.6.8.8,0,0,1-.5.4h.3l.2.2v1.6H9.8V19l-.2-.2H7.7v1.6H7.2V16.6Zm.1,1.7h.3l.2-.2a.7.7,0,0,0,.1-.3.7.7,0,0,0-.2-.5L9,17.1H7.7v1.3H9.2" fill="#969696"/>
      <path d="M14.6,17.8l.3-.6.6-.4.8-.2.8.2.6.4.3.6a2.5,2.5,0,0,1,0,1.5l-.3.6-.6.4-.8.2-.8-.2-.6-.4-.3-.6a2.5,2.5,0,0,1,0-1.5m.5,1.3.2.5.4.4h1.2l.4-.4.2-.5a2.3,2.3,0,0,0,0-1.1l-.2-.5-.4-.4H15.7l-.4.4L15,18a2.2,2.2,0,0,0,0,1.1" fill="#969696"/>
      <polygon points="23.4 20.5 22.1 16.6 22.6 16.6 23.7 20 23.8 20 24.9 16.6 25.4 16.6 24 20.5 23.4 20.5" fill="#969696"/>
      <rect x="29.6" y="16.6" width="0.5" height="3.83" fill="#969696"/>
      <polygon points="35.2 16.6 37.3 19.8 37.3 19.8 37.3 16.6 37.8 16.6 37.8 20.5 37.2 20.5 35.2 17.4 35.2 17.4 35.2 20.5 34.7 20.5 34.7 16.6 35.2 16.6" fill="#969696"/>
      <path d="M44.7,17.2,44,17h-.6l-.4.3-.2.5a2.2,2.2,0,0,0-.1.6,2.4,2.4,0,0,0,.1.6l.2.5.4.3h1l.3-.2.2-.4a1.6,1.6,0,0,0,.1-.4h.5a1.7,1.7,0,0,1-.5,1.1,1.6,1.6,0,0,1-1.2.4l-.8-.2-.6-.4a1.8,1.8,0,0,1-.3-.6,2.7,2.7,0,0,1-.1-.8,2.6,2.6,0,0,1,.1-.8l.3-.6.6-.4.8-.2h.6l.5.2.3.4a1.4,1.4,0,0,1,.2.5H45a1,1,0,0,0-.4-.6" fill="#969696"/>
      <rect x="50" y="16.6" width="0.5" height="3.83" fill="#969696"/>
      <path d="M56.7,16.6l1.5,3.8h-.6l-.4-1.2H55.6l-.4,1.2h-.5l1.5-3.8Zm.4,2.2-.6-1.8h0l-.7,1.8Z" fill="#969696"/>
    </g>
  </g>
</svg>
